<svg width="24" height="24" viewBox="0 0 24 24" fill="none" xmlns="http://www.w3.org/2000/svg">
<path fill-rule="evenodd" clip-rule="evenodd" d="M11.9929 3.71698C9.65298 1.6721 6.19252 1.25364 3.50521 3.54973C0.598423 6.03336 0.176093 10.2162 2.47471 13.174C3.34724 14.2968 5.05023 15.9836 6.68684 17.5283C8.34261 19.0912 9.99457 20.568 10.8092 21.2895C10.8143 21.294 10.8195 21.2986 10.8248 21.3032C10.9014 21.3711 10.9967 21.4556 11.0881 21.5244C11.1975 21.6069 11.3547 21.7092 11.5645 21.7718C11.8434 21.855 12.1432 21.855 12.4221 21.7718C12.6319 21.7092 12.789 21.6069 12.8984 21.5244C12.9898 21.4556 13.0852 21.3711 13.1618 21.3032C13.167 21.2986 13.1722 21.294 13.1773 21.2895C13.992 20.568 15.6439 19.0912 17.2997 17.5283C18.9363 15.9836 20.6393 14.2968 21.5118 13.174C23.8016 10.2275 23.4445 6.01246 20.4709 3.54096C17.7537 1.28253 14.3301 1.67132 11.9929 3.71698Z" fill="#7990F8"/>
</svg>
